<svg version="1.1" id="Layer_1" xmlns="http://www.w3.org/2000/svg" xmlns:xlink="http://www.w3.org/1999/xlink" x="0px" y="0px"
	 width="100%" viewBox="0 0 1024 1024" enable-background="new 0 0 1024 1024" xml:space="preserve">
<path fill="#000000" opacity="1.000000" stroke="none" 
	d="
M422.876465,406.151733 
	C408.057281,395.485748 392.101837,387.566650 376.078461,379.758850 
	C370.311462,376.948730 370.311920,376.274506 374.421539,371.138428 
	C404.697418,333.300507 444.674225,312.490112 492.240753,308.226654 
	C538.575928,304.073578 580.967773,316.454987 617.359436,346.626343 
	C626.626038,354.309052 634.889343,362.951324 642.859985,371.932281 
	C645.779907,375.222198 645.550537,376.992035 641.453064,378.905151 
	C620.913086,388.495361 600.829285,398.896057 582.762268,412.798981 
	C547.500244,439.933685 523.061707,474.542145 510.382477,517.304504 
	C510.010406,518.559326 509.982178,519.985229 507.965576,520.832275 
	C506.603455,517.164246 505.094543,513.555481 503.910614,509.843079 
	C490.932739,469.147766 465.997833,437.351440 431.645325,412.539124 
	C428.810181,410.491333 425.995270,408.415558 422.876465,406.151733 
M482.412994,426.141937 
	C482.335632,428.634857 482.088928,431.135956 482.208679,433.619354 
	C482.938721,448.756744 495.818573,459.029663 512.286621,457.687897 
	C525.324585,456.625610 536.104431,442.822418 534.564819,429.161438 
	C533.030762,415.549255 523.149292,405.314301 510.583740,404.322388 
	C496.820648,403.235992 486.372314,411.056030 482.412994,426.141937 
M492.413513,341.882111 
	C491.053131,343.334595 489.550903,344.679535 488.355408,346.256958 
	C480.557831,356.545685 482.652222,372.946136 492.638214,380.276794 
	C504.462738,388.957123 519.783203,386.891541 528.001648,375.509003 
	C535.286621,365.419342 534.316711,351.955536 525.666504,343.093842 
	C517.016541,334.232422 503.989899,333.570984 492.413513,341.882111 
M418.554108,388.591705 
	C418.707458,389.066620 418.848541,389.545868 419.015930,390.015778 
	C423.601959,402.889282 434.102173,408.944946 447.689514,406.555145 
	C459.442017,404.488068 467.270844,393.956116 466.716309,380.958862 
	C466.205292,368.981842 456.442108,358.697723 444.212097,357.406494 
	C429.064117,355.807190 414.970367,369.495331 418.554108,388.591705 
M596.820679,392.187073 
	C601.368774,381.421753 598.531433,369.972229 589.476196,362.550140 
	C581.467285,355.985687 569.044495,355.459442 560.632935,361.328217 
	C551.661194,367.587830 547.500977,380.149567 551.337036,390.638428 
	C554.680054,399.779114 561.142090,405.630829 571.067444,406.735992 
	C581.960144,407.948883 591.177612,402.781311 596.820679,392.187073 
z"/>
<path fill="#000000" opacity="1.000000" stroke="none" 
	d="
M348.203705,614.447998 
	C347.024750,611.554199 346.798004,608.927551 346.798859,606.234558 
	C346.806427,582.410706 346.854095,558.586426 346.697937,534.763489 
	C346.667786,530.167236 347.920166,528.715332 352.808716,529.303162 
	C394.588928,534.327026 430.717499,551.237000 461.030304,580.390076 
	C484.105499,602.582520 497.201202,629.839539 501.366974,661.490723 
	C503.460388,677.396179 502.360718,693.375305 502.526276,709.326172 
	C502.567535,713.297668 499.996094,713.457275 497.136505,713.294861 
	C480.613861,712.356140 464.367554,709.810242 448.722839,704.272766 
	C409.714020,690.465637 378.617279,666.563232 356.411316,631.435425 
	C353.106262,626.207092 350.585266,620.585449 348.203705,614.447998 
z"/>
<path fill="#000000" opacity="1.000000" stroke="none" 
	d="
M669.276550,551.306641 
	C669.308167,570.257568 669.209473,588.747742 669.429626,607.234009 
	C669.491577,612.434875 668.246948,617.049194 665.853577,621.545288 
	C648.780151,653.619202 623.358948,677.050049 591.428772,693.859192 
	C570.481628,704.886536 547.996460,710.390625 524.674927,713.077759 
	C524.344177,713.115845 524.011597,713.139099 523.679626,713.165833 
	C514.685425,713.889099 514.581421,713.887634 514.694519,705.072144 
	C514.880310,690.595032 513.806213,676.071289 515.714966,661.653564 
	C517.619934,647.264221 520.625183,633.128479 527.298523,620.049438 
	C530.655212,613.470642 535.497437,610.990295 542.829468,612.325928 
	C546.087036,612.919434 549.261475,614.004883 552.440002,614.977112 
	C553.557190,615.318726 554.596436,615.864807 555.810913,615.578064 
	C556.957092,615.307434 565.924866,605.061829 565.747864,603.909302 
	C564.776001,597.580933 563.464294,591.344177 557.308411,587.751404 
	C552.558105,584.979004 552.286377,583.841492 555.997559,579.572571 
	C564.740479,569.515808 575.541382,562.028809 586.796814,555.141052 
	C603.703430,544.795044 622.020264,537.811218 641.140381,532.916138 
	C646.105713,531.644836 651.319763,531.331848 656.427612,530.637817 
	C657.911011,530.436340 660.145020,530.277222 660.137451,532.082642 
	C660.113464,537.823364 664.717712,540.737061 667.353210,544.810486 
	C668.602234,546.740845 669.293945,548.620178 669.276550,551.306641 
M559.666809,638.911316 
	C565.714966,633.677124 571.060303,627.752869 576.205872,621.667114 
	C580.333374,616.785339 580.098633,611.748596 576.002808,609.144897 
	C570.729126,605.792419 565.849854,607.858276 564.178467,614.033264 
	C563.590576,616.205261 564.080811,618.615662 562.120300,620.512024 
	C556.685120,625.769409 555.781433,632.084290 559.666809,638.911316 
z"/>
<path fill="#000000" opacity="1.000000" stroke="none" 
	d="
M359.632416,516.349854 
	C344.530548,515.852234 347.008759,516.565063 346.942322,503.627991 
	C346.817444,479.305206 347.061157,454.980713 347.035553,430.657074 
	C347.020203,416.060089 353.056641,403.564178 360.198364,391.402679 
	C361.655151,388.922028 363.529724,388.625671 366.103027,389.798370 
	C408.771271,409.242889 446.958160,434.329865 472.619659,474.972656 
	C489.060944,501.012360 499.201324,529.212036 501.453491,560.158813 
	C502.592865,575.815125 501.822388,591.461182 502.261597,607.105408 
	C502.287842,608.040710 502.591156,609.121887 501.351349,609.952637 
	C469.607208,555.634521 420.738098,527.087158 359.632416,516.349854 
z"/>
<path fill="#000000" opacity="1.000000" stroke="none" 
	d="
M602.538940,531.587036 
	C583.311829,540.425598 565.496155,550.917786 550.298279,565.157410 
	C538.004395,576.676086 526.837463,589.306152 519.382080,604.723022 
	C518.369995,606.815918 517.193054,608.830261 516.047119,610.855347 
	C515.927979,611.066040 515.499634,611.101746 514.664673,611.444214 
	C514.664673,608.529846 514.624634,605.821106 514.671265,603.113831 
	C514.932251,587.959656 514.370056,572.803284 515.522339,557.649353 
	C517.504150,531.587036 525.792419,507.532043 538.098816,484.728851 
	C558.521790,446.885956 589.534668,420.158691 627.225830,400.618683 
	C633.978210,397.118134 641.143677,394.414459 648.722229,391.076935 
	C648.953186,396.684998 651.245728,400.456329 655.766174,402.874847 
	C657.865601,402.479919 656.277405,399.743164 658.441101,398.818024 
	C659.190979,398.556854 659.946533,399.378662 660.413513,400.207947 
	C664.932800,408.234589 669.144897,416.536011 669.227417,425.919342 
	C669.474915,454.083160 669.297729,482.250488 669.378296,510.416199 
	C669.388306,513.910889 668.743958,516.111572 664.565979,516.232483 
	C642.927612,516.858521 622.573547,522.826233 602.538940,531.587036 
z"/>
<path fill="#000000" opacity="1.000000" stroke="none" 
	d="
M544.132324,234.033432 
	C492.995575,225.495483 445.354370,233.897858 400.914734,259.942413 
	C386.936554,268.134583 373.709076,277.322906 361.962372,288.558319 
	C357.311646,293.006622 355.581757,292.770172 351.341614,288.197449 
	C345.568085,281.971008 339.743591,275.784790 333.751312,269.770294 
	C328.244080,264.242645 328.073608,261.928436 333.672241,256.633057 
	C362.601013,229.271439 396.304230,209.994873 434.050568,197.666718 
	C463.673096,187.991837 494.117554,184.261948 525.132141,186.849472 
	C585.311523,191.870163 637.482422,215.525879 682.270447,255.785965 
	C689.321106,262.123749 689.086182,265.132233 681.737671,271.383667 
	C675.757935,276.470703 670.572144,282.335236 665.464417,288.276825 
	C661.166138,293.276917 659.341492,293.426575 654.389343,288.879608 
	C627.098083,263.821198 595.428650,246.857132 559.637878,237.508514 
	C554.654846,236.206940 549.584473,235.239517 544.132324,234.033432 
z"/>
<path fill="#000000" opacity="1.000000" stroke="none" 
	d="
M724.278564,607.997559 
	C724.070923,613.815674 724.996155,619.212769 723.806396,624.447083 
	C721.310730,635.427246 711.458313,642.913696 701.386353,641.794128 
	C690.120605,640.541931 682.772949,631.921082 682.749146,619.627930 
	C682.689758,588.966187 682.723083,558.304260 682.717896,527.642395 
	C682.711975,492.481140 682.700745,457.319855 682.707703,422.158600 
	C682.708130,419.995667 682.635254,417.800568 682.957336,415.675140 
	C684.711548,404.099548 693.328735,397.006683 704.483093,397.827332 
	C716.067322,398.679596 724.259766,407.535522 724.266907,419.526917 
	C724.304260,482.183990 724.280640,544.841064 724.278564,607.997559 
z"/>
<path fill="#000000" opacity="1.000000" stroke="none" 
	d="
M292.799072,463.000000 
	C292.780090,448.012482 292.550568,433.521393 292.799011,419.038452 
	C293.060242,403.809723 305.450897,394.593018 319.592804,398.729309 
	C328.412140,401.308838 334.060577,409.570679 334.071991,420.307831 
	C334.118835,464.270081 334.109955,508.232391 334.102417,552.194702 
	C334.098602,574.508972 334.113037,596.823486 334.002563,619.137329 
	C333.949310,629.895569 327.206360,639.055115 318.017487,641.288879 
	C305.544922,644.320862 292.871277,633.721619 292.766022,619.866516 
	C292.626862,601.550049 292.778259,583.231445 292.784912,564.913757 
	C292.797150,531.109192 292.794922,497.304596 292.799072,463.000000 
z"/>
<path fill="#000000" opacity="1.000000" stroke="none" 
	d="
M273.334290,438.215118 
	C275.668396,437.725189 277.605621,437.128571 280.208496,438.256744 
	C280.208496,445.456787 280.252991,452.892944 280.185669,460.328125 
	C280.160339,463.127899 277.934174,462.999695 275.926300,463.405975 
	C265.062592,465.604248 255.326157,469.710175 248.439529,479.083221 
	C244.325241,484.683044 245.285080,490.551697 245.971481,496.659058 
	C248.110046,496.534576 248.462662,495.023956 249.165314,494.007996 
	C255.874695,484.306854 265.846802,480.709900 276.884552,479.080811 
	C279.210480,478.737549 280.336914,479.798462 280.313446,482.134644 
	C280.303406,483.133972 280.334015,484.133667 280.333832,485.133179 
	C280.326630,523.786621 280.321625,562.440063 280.306366,601.093506 
	C280.303436,608.490356 279.204376,609.616943 271.742310,608.040405 
	C253.145554,604.111450 237.085938,595.678711 224.438644,581.092102 
	C200.863510,553.902161 196.066696,512.044556 213.886703,481.716583 
	C227.307770,458.875214 247.280151,444.662689 273.334290,438.215118 
z"/>
<path fill="#000000" opacity="1.000000" stroke="none" 
	d="
M765.732788,476.275452 
	C758.424316,469.549164 750.350464,465.168457 740.676636,464.271454 
	C737.790588,464.003845 736.576599,462.746155 736.629578,459.824310 
	C736.738342,453.831268 736.709229,447.833832 736.622986,441.839874 
	C736.579468,438.813171 737.971680,437.470825 740.887085,437.865417 
	C743.850403,438.266541 746.910156,438.505981 749.714111,439.450470 
	C784.179260,451.060211 812.810852,480.259186 813.359680,521.822144 
	C813.724731,549.466431 804.044678,572.569275 783.066711,590.665588 
	C772.373901,599.889465 759.726868,605.291077 745.948669,608.075562 
	C744.174866,608.434082 742.301697,608.330200 740.472900,608.379822 
	C738.059814,608.445312 736.713684,607.340820 736.727173,604.815857 
	C736.733459,603.650513 736.683472,602.484924 736.682373,601.319458 
	C736.646362,563.016418 736.609558,524.713379 736.583191,486.410339 
	C736.578491,479.566284 737.873474,478.452271 744.537537,480.134308 
	C755.546814,482.912994 765.023621,488.028229 771.245544,499.619507 
	C771.795532,490.481018 773.441345,482.478333 765.732788,476.275452 
z"/>
<path fill="#000000" opacity="1.000000" stroke="none" 
	d="
M747.156616,343.989624 
	C750.295349,351.431427 748.205139,355.328339 740.721375,356.012512 
	C735.160522,356.520935 731.699524,359.889038 728.756836,364.039734 
	C727.600403,365.670807 726.625061,367.419617 725.067261,368.713104 
	C720.740784,372.305725 716.350098,371.613770 714.161804,366.472107 
	C704.679260,344.191620 691.270142,324.442657 675.886719,305.900208 
	C672.048035,301.273376 672.046021,298.352600 676.078491,293.939026 
	C681.688477,287.798889 687.558411,281.881866 693.546082,276.106750 
	C696.975708,272.798828 700.298218,273.215942 703.892090,277.259521 
	C710.086670,284.229279 715.934448,291.493958 721.239136,299.176025 
	C731.003479,313.316162 739.263489,328.330017 747.156616,343.989624 
z"/>
<path fill="#000000" opacity="1.000000" stroke="none" 
	d="
M317.342407,337.305908 
	C311.942932,345.954681 307.367798,354.606842 304.034271,363.890656 
	C302.828766,367.248016 301.260742,370.466766 297.115875,370.942719 
	C292.861938,371.431152 290.841309,368.487915 289.113892,365.340118 
	C285.776093,359.257690 281.286957,355.314301 273.804810,355.143372 
	C269.011597,355.033905 267.038025,351.383179 268.744293,346.615753 
	C272.522644,336.058716 278.200226,326.435211 284.039368,316.942139 
	C292.330750,303.462341 301.612030,290.660583 311.560028,278.353149 
	C316.351715,272.424957 319.737274,272.294495 325.145935,277.630066 
	C330.122314,282.539246 335.111572,287.436340 340.025452,292.407623 
	C344.399719,296.833038 344.763458,300.408752 340.633545,305.092834 
	C331.899292,314.999176 324.667206,325.952759 317.342407,337.305908 
z"/>
<path fill="#000000" opacity="1.000000" stroke="none" 
	d="
M442.305298,806.675049 
	C439.560364,803.581055 437.056183,800.746338 434.042572,797.334961 
	C433.406555,804.191650 433.219574,810.215393 433.689392,816.283203 
	C434.165344,822.430237 432.045959,825.364990 427.332581,825.525146 
	C422.718750,825.682007 419.802063,822.610718 419.754059,817.008484 
	C419.641418,803.866272 419.700928,790.722534 419.706818,777.579407 
	C419.708313,774.261719 420.332672,771.168884 423.837158,769.769165 
	C427.633545,768.252991 430.212341,770.415405 432.472321,773.048523 
	C438.754364,780.367615 444.980225,787.734985 451.256927,795.058655 
	C452.074829,796.013062 452.567474,797.407349 454.734436,797.598083 
	C454.734436,791.280029 454.703644,785.037048 454.743134,778.794495 
	C454.782349,772.591919 456.925812,769.704956 461.437622,769.633179 
	C466.449280,769.553467 469.173889,772.745972 469.195526,779.033447 
	C469.238495,791.510864 469.190063,803.988525 469.155701,816.466125 
	C469.146271,819.886169 468.874908,823.404114 465.204712,824.925537 
	C461.370056,826.515198 458.543152,824.384216 456.049042,821.637085 
	C451.576172,816.710632 447.049927,811.832642 442.305298,806.675049 
z"/>
<path fill="#000000" opacity="1.000000" stroke="none" 
	d="
M521.335205,817.329041 
	C516.111633,822.543457 509.932861,824.741516 503.094543,825.077087 
	C497.621002,825.345764 492.128143,825.236633 486.643707,825.264099 
	C482.018341,825.287292 479.244019,822.837708 479.164093,818.354065 
	C478.915405,804.398376 478.904938,790.436707 478.975189,776.478210 
	C478.993195,772.903381 481.152039,770.180542 484.731110,770.049744 
	C492.835022,769.753540 501.004913,768.881104 509.040039,770.902405 
	C527.192383,775.468567 537.974365,800.043030 521.335205,817.329041 
M498.531769,811.732239 
	C508.419739,811.372375 514.553955,806.273682 514.653137,798.332275 
	C514.750610,790.536560 508.606232,784.318726 500.012939,783.517090 
	C494.929596,783.042786 493.167786,784.472046 493.124176,789.310181 
	C493.071716,795.132446 493.209137,800.956970 493.110107,806.777893 
	C493.054749,810.031799 494.177307,811.907959 498.531769,811.732239 
z"/>
<path fill="#000000" opacity="1.000000" stroke="none" 
	d="
M310.226410,824.146118 
	C291.694061,815.140869 286.460999,794.923584 298.413147,779.836304 
	C308.608582,766.966553 326.387421,765.234924 339.268707,775.856873 
	C351.494415,785.938354 352.953125,804.360413 342.334930,816.475098 
	C333.626221,826.411133 322.826050,828.371155 310.226410,824.146118 
M307.149109,792.811646 
	C305.032684,800.872620 309.107849,809.223389 316.251617,811.464600 
	C323.599640,813.769775 331.328491,809.874878 334.051910,802.494202 
	C336.763733,795.145020 333.365051,787.598511 325.909546,784.414551 
	C318.395538,781.205566 311.399445,784.100708 307.149109,792.811646 
z"/>
<path fill="#000000" opacity="1.000000" stroke="none" 
	d="
M682.784668,812.651367 
	C686.755737,811.956421 690.244873,811.134644 692.724426,807.158630 
	C689.535583,806.874756 686.937073,806.573425 684.329773,806.428467 
	C680.756958,806.229736 679.324707,803.984619 679.177246,800.846924 
	C679.024048,797.588074 680.697144,795.155518 684.025085,794.987183 
	C690.007080,794.684509 696.014038,794.775635 702.008118,794.866211 
	C704.152283,794.898621 705.740723,796.213074 706.689697,798.147156 
	C708.870544,802.592163 707.186096,813.369873 703.440857,816.924011 
	C694.377197,825.525208 683.796692,828.719971 671.738892,824.488647 
	C660.343384,820.489685 653.327087,812.334595 652.364258,800.215515 
	C651.454285,788.762451 656.029663,779.290100 665.893188,773.045837 
	C675.257751,767.117493 685.080750,766.988281 694.820312,772.331848 
	C697.812683,773.973511 700.291504,776.252686 700.247314,780.115173 
	C700.213928,783.034729 698.268616,784.555298 695.931763,785.714172 
	C693.120056,787.108582 690.820068,785.518250 688.394531,784.427734 
	C679.446777,780.404358 670.811401,783.725281 667.480408,792.410828 
	C663.809387,801.982971 671.058777,811.834961 682.784668,812.651367 
z"/>
<path fill="#000000" opacity="1.000000" stroke="none" 
	d="
M735.751709,812.135437 
	C741.495544,812.214050 746.827576,811.819214 752.133118,812.605408 
	C756.239563,813.213928 759.313049,815.158447 759.024963,819.608154 
	C758.730469,824.156372 755.409668,825.407288 751.202820,825.348389 
	C742.546509,825.227112 733.886108,825.398376 725.229431,825.291382 
	C719.223816,825.217163 716.763550,822.732178 716.724365,816.710449 
	C716.642029,804.056824 716.640198,791.402039 716.713013,778.748291 
	C716.751587,772.031860 719.182922,769.728394 725.748657,769.760620 
	C733.240967,769.797363 740.733582,769.801941 748.225708,769.862366 
	C749.883240,769.875793 751.582825,769.864807 753.187012,770.214111 
	C756.567383,770.950317 759.163757,772.806213 759.029846,776.599304 
	C758.891907,780.504456 756.352356,782.782593 752.614136,782.997986 
	C746.970581,783.323181 741.299316,783.179871 735.639771,783.209412 
	C732.861694,783.223938 730.447388,783.075073 730.423462,787.251099 
	C730.398926,791.536926 732.667847,791.731567 735.814148,791.634155 
	C739.140259,791.531128 742.476807,791.555054 745.802063,791.689514 
	C749.781921,791.850464 752.866089,793.792969 752.859314,797.904419 
	C752.852600,802.045471 749.614685,803.880615 745.742493,804.115540 
	C742.257629,804.327087 738.748962,804.306641 735.257141,804.193054 
	C732.264893,804.095764 731.118713,805.350891 731.086609,808.328491 
	C731.052917,811.455994 732.375427,812.582703 735.751709,812.135437 
z"/>
<path fill="#000000" opacity="1.000000" stroke="none" 
	d="
M373.037048,790.984924 
	C373.137451,795.137878 372.928375,798.838013 373.414551,802.444458 
	C374.198608,808.260193 379.497559,812.763977 384.717346,812.545715 
	C390.654999,812.297363 394.656555,807.852783 394.765594,801.083679 
	C394.886292,793.592041 394.739899,786.096191 394.845978,778.604126 
	C394.928833,772.752869 397.427551,769.796997 402.052673,769.719055 
	C406.647644,769.641602 409.126984,772.611206 409.191284,778.545410 
	C409.268860,785.705017 409.243561,792.866272 409.204987,800.026428 
	C409.123932,815.070251 399.411163,825.748840 385.423645,826.222168 
	C370.883789,826.714050 359.956970,817.028748 358.928070,802.073547 
	C358.357819,793.784729 358.626312,785.427551 358.765411,777.105286 
	C358.832947,773.063904 360.604401,770.002930 365.209259,769.697571 
	C369.455536,769.415894 372.357697,771.773682 372.773834,776.516602 
	C373.180023,781.146545 372.975861,785.830078 373.037048,790.984924 
z"/>
<path fill="#000000" opacity="1.000000" stroke="none" 
	d="
M609.351379,815.345093 
	C605.400330,814.877808 603.225220,816.259399 602.216553,819.738037 
	C601.557312,822.011536 600.195557,823.934753 597.983643,825.064880 
	C595.571777,826.297119 593.182312,826.344360 590.918945,824.727661 
	C588.800232,823.214294 587.995056,821.091553 588.627258,818.599792 
	C589.155151,816.519226 589.790894,814.430542 590.679871,812.482788 
	C596.407532,799.934021 602.221863,787.424805 607.999023,774.898560 
	C609.653931,771.310242 612.197327,768.829712 616.343628,768.822876 
	C620.125427,768.816711 622.378540,771.210083 623.926697,774.396362 
	C630.390991,787.700439 636.968445,800.951294 643.258240,814.337402 
	C646.262939,820.732056 642.741577,826.153564 636.470764,825.504333 
	C633.346252,825.180786 631.803467,823.045715 630.735413,820.570374 
	C628.993774,816.533997 626.258545,814.824951 621.768860,815.253113 
	C617.813843,815.630188 613.795166,815.338379 609.351379,815.345093 
M614.465332,792.330566 
	C613.089539,795.445374 611.713745,798.560242 610.186340,802.018311 
	C614.644409,802.940002 618.293152,803.005066 622.692993,801.948486 
	C620.825684,798.312805 619.221313,795.081299 617.509949,791.907593 
	C616.779114,790.552124 615.779297,790.477051 614.465332,792.330566 
z"/>
<path fill="#000000" opacity="1.000000" stroke="none" 
	d="
M568.520874,794.314819 
	C577.773926,799.179382 581.310242,805.938416 578.957214,813.789551 
	C576.834961,820.870667 566.988281,826.774292 557.963501,826.085999 
	C552.101379,825.638916 546.426025,824.298523 541.823608,820.260315 
	C539.333191,818.075195 537.122375,815.402466 539.216614,812.061218 
	C541.314026,808.714783 544.673218,807.852112 548.386169,809.665100 
	C551.830322,811.346863 555.200500,813.289001 559.258362,812.594238 
	C561.609619,812.191772 564.119263,811.547485 564.494141,808.790894 
	C564.884705,805.919617 562.216736,805.445251 560.247925,804.748596 
	C556.649109,803.475037 552.799316,802.769226 549.392578,801.125427 
	C543.066833,798.073242 538.453918,793.482300 538.702393,785.734680 
	C538.929993,778.639160 543.436340,773.056091 550.930237,770.346741 
	C559.038757,767.415222 566.715393,768.477295 573.780212,773.176270 
	C578.350159,776.215942 579.110413,780.372681 576.311157,783.711365 
	C574.001892,786.465637 571.343750,786.696594 568.301941,785.062744 
	C565.058105,783.320190 561.771362,781.659058 557.892639,782.375305 
	C555.873291,782.748169 553.790283,783.300232 553.399109,785.660583 
	C553.024475,787.920837 554.902832,788.873291 556.586060,789.579834 
	C560.416809,791.187683 564.315002,792.634705 568.520874,794.314819 
z"/>
<path fill="#000000" opacity="1.000000" stroke="none" 
	d="
M280.374023,774.669067 
	C282.968231,777.881653 283.547485,780.919373 280.837097,783.930298 
	C277.952911,787.134399 274.766724,786.644470 271.409180,784.602051 
	C269.275391,783.304016 266.980835,782.266418 264.401184,782.204468 
	C261.662811,782.138672 258.582336,782.183289 257.831573,785.365784 
	C257.115906,788.399597 259.943481,789.629272 262.215912,790.561462 
	C266.514954,792.324890 271.079834,793.443359 275.097839,795.888550 
	C279.935333,798.832336 283.049744,802.906311 283.291992,808.756226 
	C283.591736,815.995239 279.731140,820.886841 273.615173,823.700134 
	C263.881897,828.177307 254.440567,826.793274 245.868362,820.484436 
	C243.364410,818.641602 240.624847,816.143799 242.957565,812.544312 
	C245.155533,809.152771 248.373520,807.685120 252.433090,809.556702 
	C255.294540,810.875916 258.057617,812.539062 261.319977,812.621277 
	C264.160675,812.692871 267.610565,812.896423 268.419952,809.513672 
	C269.327972,805.718506 265.725922,805.114136 263.101379,804.274719 
	C258.818604,802.904785 254.593735,801.477905 250.715500,799.107727 
	C245.627731,795.998352 242.552444,791.633118 242.812225,785.621216 
	C243.084351,779.323120 246.320297,774.424866 251.991058,771.761230 
	C261.765045,767.170105 271.299591,767.550903 280.374023,774.669067 
z"/>
<path fill="#000000" opacity="1.000000" stroke="none" 
	d="
M741.091980,367.417358 
	C744.166077,365.890228 744.438110,368.373444 744.997925,369.883820 
	C748.880066,380.357056 751.967407,391.114349 752.972656,402.221863 
	C753.839294,411.798187 754.601379,421.447083 754.065491,431.104584 
	C753.932007,433.510834 754.321838,436.127014 751.261292,438.656158 
	C748.024353,433.442627 743.332886,429.973114 737.974426,427.328369 
	C736.405151,426.553833 736.747742,424.714600 736.748718,423.252289 
	C736.758057,409.523651 734.878357,396.076233 730.648682,383.002228 
	C729.876953,380.616852 730.372009,378.914154 732.058289,377.175446 
	C735.066711,374.073334 737.919434,370.820190 741.091980,367.417358 
z"/>
<path fill="#000000" opacity="1.000000" stroke="none" 
	d="
M263.568207,415.306030 
	C263.734955,398.134369 266.804565,382.004608 273.267883,365.595703 
	C278.865234,369.306854 281.915833,374.386719 286.184540,378.126923 
	C287.082947,378.914124 286.412109,380.322571 286.063629,381.449097 
	C281.910065,394.876984 279.608398,408.579346 280.119171,422.675812 
	C280.220367,425.468475 279.479706,427.475891 276.554840,428.435059 
	C271.849030,429.978333 268.925049,434.087891 264.611328,437.682770 
	C261.519318,429.965759 263.794891,422.766724 263.568207,415.306030 
z"/>
</svg>