<?xml version="1.0" standalone="no"?>
<!DOCTYPE svg PUBLIC "-//W3C//DTD SVG 20010904//EN"
 "http://www.w3.org/TR/2001/REC-SVG-20010904/DTD/svg10.dtd">
<svg version="1.0" xmlns="http://www.w3.org/2000/svg"
 width="1024.000000pt" height="1024.000000pt" viewBox="0 0 1024.000000 1024.000000"
 preserveAspectRatio="xMidYMid meet">

<g transform="translate(0.000000,1024.000000) scale(0.100000,-0.100000)"
fill="#000000" stroke="none">
<path d="M4770 8365 c-390 -60 -717 -178 -1040 -378 -176 -109 -440 -330 -440
-369 0 -11 24 -43 53 -71 29 -29 84 -87 124 -129 39 -43 79 -78 88 -78 9 0 40
22 68 49 29 26 98 82 154 124 324 240 693 386 1078 428 129 14 397 6 525 -15
408 -68 799 -249 1104 -511 96 -81 123 -91 150 -50 9 13 63 72 121 131 58 58
105 113 105 122 0 43 -287 272 -489 392 -307 181 -577 280 -933 341 -162 28
-526 35 -668 14z"/>
<path d="M3153 7499 c-25 -9 -170 -198 -277 -361 -92 -140 -196 -341 -196
-379 0 -34 32 -59 75 -59 45 0 90 -32 129 -94 30 -47 40 -56 65 -56 38 0 55
18 80 85 51 136 212 393 347 553 24 29 44 62 44 74 0 23 -200 233 -229 241 -9
2 -26 0 -38 -4z"/>
<path d="M6842 7397 c-134 -135 -136 -143 -51 -247 102 -126 220 -308 295
-455 90 -179 94 -180 199 -71 66 70 75 76 112 76 44 0 73 23 73 58 0 24 -98
214 -178 347 -68 112 -159 239 -235 328 -81 94 -86 93 -215 -36z"/>
<path d="M5254 6458 c-45 -47 -98 -68 -181 -68 -65 0 -79 4 -149 40 -42 23
-79 38 -82 35 -4 -3 0 -11 8 -16 12 -8 9 -10 -12 -6 -15 2 -25 0 -22 -4 3 -5
0 -9 -7 -9 -7 0 -9 9 -6 23 5 18 4 20 -6 7 -19 -24 -63 -40 -75 -28 -7 7 -10
5 -8 -8 5 -28 -4 -37 -20 -23 -12 10 -12 14 -2 20 10 7 9 9 -4 9 -13 0 -18 -8
-18 -26 0 -14 4 -22 10 -19 6 3 7 -1 4 -9 -3 -9 -10 -14 -14 -11 -5 3 -11 -7
-15 -22 -10 -48 -70 -119 -120 -143 -61 -30 -156 -37 -215 -16 l-44 15 29 -23
c18 -14 24 -25 17 -30 -6 -3 -13 -2 -17 4 -3 5 -15 15 -26 20 -38 21 -18 1 50
-48 183 -134 351 -310 481 -505 99 -148 165 -281 221 -445 23 -67 43 -121 44
-120 2 2 19 52 39 111 129 388 385 733 735 993 88 65 128 100 117 102 -11 3
-15 9 -11 19 3 9 -15 -3 -40 -26 -88 -81 -174 -100 -279 -61 -92 35 -154 125
-157 230 -2 44 -3 47 -6 18 -3 -29 -9 -38 -23 -38 -17 0 -18 4 -10 26 7 16 7
23 0 19 -6 -3 -10 -13 -10 -21 0 -8 -7 -14 -15 -14 -8 0 -15 5 -15 10 0 6 5
10 10 10 6 0 10 5 10 11 0 5 -10 3 -22 -5 -28 -20 -44 -21 -28 -1 15 18 7 19
-22 4 -18 -10 -20 -9 -15 5 4 10 1 16 -8 16 -7 0 -20 6 -28 14 -13 13 -18 11
-43 -16z m51 -8 c-3 -5 -10 -10 -16 -10 -5 0 -9 5 -9 10 0 6 7 10 16 10 8 0
12 -4 9 -10z m-401 -26 c3 -8 2 -12 -4 -9 -6 3 -10 10 -10 16 0 14 7 11 14 -7z
m-124 -9 c0 -9 -9 -15 -21 -15 -18 0 -19 2 -9 15 7 8 16 15 21 15 5 0 9 -7 9
-15z m65 6 c3 -5 2 -12 -3 -15 -5 -3 -9 1 -9 9 0 17 3 19 12 6z m342 -232
c163 -79 205 -303 82 -442 -65 -75 -171 -102 -275 -72 -109 31 -194 147 -194
265 0 159 139 290 290 275 30 -3 74 -15 97 -26z"/>
<path d="M7486 6313 l6 -42 -51 3 c-28 2 -51 0 -51 -4 0 -5 -10 -6 -21 -3 -21
6 -21 4 -16 -53 4 -32 9 -98 13 -145 6 -85 7 -86 41 -104 19 -10 49 -35 68
-56 18 -20 36 -35 39 -31 20 20 -6 447 -29 470 -3 3 -3 -12 1 -35z"/>
<path d="M2684 6308 c-3 -4 -9 -6 -14 -3 -18 11 -30 -84 -37 -277 -3 -76 -2
-138 2 -138 4 0 27 18 53 40 25 22 56 43 69 46 22 6 23 11 23 88 0 44 6 121
14 170 13 87 13 89 -4 68 -10 -12 -25 -22 -34 -22 -21 0 -31 21 -15 31 8 5 2
7 -19 7 -18 -1 -35 -5 -38 -10z m35 -12 c7 -9 8 -17 2 -20 -5 -3 -12 0 -15 6
-3 10 -9 8 -19 -4 -8 -10 -17 -15 -21 -11 -6 7 22 43 34 43 4 0 13 -6 19 -14z
m31 -36 c0 -5 -5 -10 -11 -10 -5 0 -7 5 -4 10 3 6 8 10 11 10 2 0 4 -4 4 -10z"/>
<path d="M7448 6306 c-10 -7 -15 -16 -12 -19 4 -3 13 1 21 9 20 19 13 26 -9
10z"/>
<path d="M7360 6290 c0 -5 7 -7 15 -4 8 4 15 8 15 10 0 2 -7 4 -15 4 -8 0 -15
-4 -15 -10z"/>
<path d="M3115 6264 c-6 -1 -27 -5 -48 -9 -48 -8 -111 -64 -129 -113 -10 -29
-13 -253 -13 -1092 0 -1011 1 -1056 19 -1090 85 -159 280 -161 360 -3 15 30
16 130 14 1106 l-3 1073 -27 42 c-16 23 -43 49 -60 58 -33 17 -95 33 -113 28z"/>
<path d="M6935 6246 c-49 -21 -92 -78 -105 -139 -8 -38 -10 -351 -7 -1088 l3
-1034 22 -42 c63 -120 237 -138 325 -34 60 71 58 29 55 1167 l-3 1041 -30 48
c-39 64 -97 95 -174 95 -31 -1 -70 -7 -86 -14z"/>
<path d="M6198 5856 c-15 -29 -46 -85 -71 -122 -87 -136 -270 -349 -290 -337
-5 3 -7 1 -4 -4 10 -16 -18 -34 -39 -27 -15 5 -16 4 -5 -4 11 -8 12 -14 3 -24
-13 -16 -59 -17 -88 0 -12 6 -24 9 -27 6 -3 -3 -3 4 0 17 4 15 3 20 -5 15 -9
-5 -9 -1 -3 16 5 13 15 21 23 20 7 -2 10 0 6 4 -4 4 -3 13 3 21 6 7 8 13 5 13
-10 0 -43 -33 -49 -50 -4 -10 -6 -8 -6 7 -1 12 4 25 9 28 15 9 12 25 -5 25 -8
0 -14 -3 -14 -7 4 -22 -2 -43 -12 -43 -6 0 -8 7 -5 16 4 9 2 13 -5 8 -6 -4
-16 0 -21 7 -8 11 -9 10 -5 -3 3 -9 0 -19 -8 -22 -10 -3 -12 0 -8 11 4 11 2
14 -5 9 -17 -10 -15 0 4 18 14 15 14 16 0 16 -9 0 -16 -4 -16 -10 0 -15 -16
-12 -35 6 -13 13 -13 19 -3 32 12 14 11 14 -9 1 -16 -10 -21 -20 -17 -34 6
-20 6 -20 -9 -1 -15 20 -12 60 4 50 5 -3 9 -1 9 5 0 5 -5 13 -10 16 -8 5 -7
11 1 21 7 8 7 14 1 14 -13 0 -26 -30 -23 -52 1 -10 -3 -18 -9 -18 -6 0 -8 5
-5 10 3 6 4 10 1 10 -12 0 -116 -191 -159 -290 -98 -228 -133 -387 -148 -665
-5 -110 -9 -249 -7 -310 l3 -110 40 75 c81 152 253 352 397 463 297 226 657
377 979 409 l119 11 0 329 c-1 321 -3 363 -20 353 -5 -3 -16 2 -24 11 -22 21
-22 -3 0 -34 8 -12 11 -22 5 -22 -5 0 -13 9 -16 20 -3 11 -11 20 -16 20 -6 0
-23 14 -38 31 l-29 31 5 -26 c3 -14 9 -24 13 -21 4 3 10 -6 12 -20 3 -14 1
-25 -3 -25 -5 0 -9 7 -9 15 0 9 -6 12 -17 8 -13 -5 -15 -2 -10 11 4 10 3 15
-3 11 -6 -3 -10 -1 -10 6 0 7 -3 9 -7 6 -4 -4 2 -20 13 -35 31 -41 36 -62 17
-62 -9 0 -27 -10 -40 -22 -13 -12 -23 -17 -23 -11 0 6 8 14 18 18 16 6 16 7 0
16 -20 11 -25 39 -7 39 6 0 4 7 -5 15 -8 8 -16 15 -18 15 -8 0 -5 -56 3 -66 6
-8 2 -14 -13 -19 -19 -6 -20 -8 -6 -12 11 -3 17 -13 16 -28 -1 -13 -6 -21 -10
-19 -4 3 -5 11 -2 19 4 10 -1 12 -18 8 -13 -3 -19 -1 -13 4 12 9 13 28 2 39
-4 4 1 17 10 28 18 20 17 21 -2 5 -11 -8 -24 -15 -30 -14 -16 1 -36 16 -31 23
2 4 -8 8 -22 9 -24 1 -25 0 -7 -10 30 -16 45 -34 37 -43 -4 -5 0 -3 9 4 16 12
29 7 29 -10 0 -5 -5 -6 -12 -2 -8 5 -9 0 -6 -14 4 -12 3 -22 0 -22 -11 0 -34
17 -33 24 3 22 -2 28 -9 11 -13 -29 -12 -35 5 -35 8 0 15 -5 15 -12 0 -6 -3
-8 -6 -5 -8 7 -44 -10 -44 -21 0 -4 4 -13 9 -21 8 -12 12 -13 25 -1 14 11 16
10 11 -3 -7 -18 -53 -29 -62 -14 -3 6 -1 7 5 3 19 -11 14 2 -8 24 -11 11 -27
20 -35 20 -8 0 -14 5 -12 11 1 6 -4 14 -12 17 -10 3 -12 0 -8 -12 4 -9 3 -15
-2 -11 -13 7 -42 -5 -35 -16 3 -5 0 -9 -6 -9 -6 0 -9 8 -6 18 22 73 48 282 34
282 -2 0 -16 -24 -30 -54z m400 -101 c-3 -3 -9 2 -12 12 -6 14 -5 15 5 6 7 -7
10 -15 7 -18z m-13 -24 c3 -5 2 -12 -3 -15 -5 -3 -9 1 -9 9 0 17 3 19 12 6z
m79 -23 c-3 -5 -12 -4 -20 3 -19 16 -18 18 6 12 11 -3 17 -9 14 -15z m-84 -38
c0 -5 -4 -10 -10 -10 -5 0 -10 5 -10 10 0 6 5 10 10 10 6 0 10 -4 10 -10z
m-157 -73 c2 -25 0 -34 -10 -30 -7 3 -10 10 -7 15 4 6 0 14 -7 19 -10 6 -11 9
-1 9 6 0 12 8 12 17 0 30 11 7 13 -30z m-175 3 c7 -12 17 -18 22 -15 6 3 10 2
10 -3 0 -20 -14 -20 -32 1 -12 13 -18 16 -15 7 6 -21 -28 -24 -44 -4 -8 10 -8
14 0 14 6 0 11 -4 11 -10 0 -5 5 -10 10 -10 6 0 10 9 10 20 0 26 12 26 28 0z
m-23 -50 c3 -6 -1 -7 -9 -4 -18 7 -21 14 -7 14 6 0 13 -4 16 -10z m-766 -125
c0 -5 -4 -3 -9 5 -5 8 -9 22 -9 30 0 16 17 -16 18 -35z m70 -6 c-13 -25 -16
-24 -16 5 0 16 4 23 13 19 10 -4 11 -10 3 -24z m101 -35 c0 -9 7 -22 17 -29
13 -9 13 -14 3 -20 -9 -5 -11 -4 -6 3 4 7 1 12 -8 12 -9 0 -16 9 -16 20 0 17
-2 19 -14 8 -10 -9 -11 -18 -4 -31 8 -16 7 -17 -11 -5 l-20 12 21 23 c25 27
38 29 38 7z m60 -70 c0 -8 -5 -12 -10 -9 -6 4 -8 11 -5 16 9 14 15 11 15 -7z
m64 -6 c-3 -4 -9 -8 -15 -8 -5 0 -9 4 -9 8 0 5 7 9 15 9 8 0 12 -4 9 -9z m-24
-18 c12 -8 11 -10 -7 -10 -13 0 -23 5 -23 10 0 13 11 13 30 0z m-32 -21 c10
-14 10 -18 -2 -22 -10 -4 -13 -1 -9 9 3 7 0 14 -7 14 -6 0 -8 5 -5 11 4 6 8 9
9 7 1 -2 7 -10 14 -19z m-41 -8 c0 -11 -5 -18 -9 -15 -4 3 -5 11 -1 19 7 21
12 19 10 -4z m2 -37 c6 4 11 2 11 -4 0 -17 -33 -8 -37 10 -4 12 -3 13 5 1 5
-7 15 -10 21 -7z"/>
<path d="M3925 5819 c4 -48 11 -104 15 -125 6 -25 5 -43 -1 -49 -7 -7 -10 -7
-9 0 8 37 -14 49 -24 13 -5 -19 -8 -21 -16 -8 -13 19 -13 33 0 25 6 -3 10 -1
10 4 0 15 -13 14 -28 -1 -10 -10 -19 -6 -43 20 -29 30 -47 43 -35 23 4 -5 0
-12 -6 -14 -7 -3 -3 -6 8 -6 12 -1 27 -7 33 -15 9 -11 5 -16 -20 -25 -33 -11
-56 -7 -25 5 28 11 17 20 -19 16 -19 -2 -38 -9 -42 -15 -4 -6 2 -8 14 -5 14 4
20 1 19 -8 -3 -18 -16 -30 -16 -15 0 8 -6 11 -16 7 -8 -3 -12 -2 -9 4 3 6 -1
10 -10 10 -9 0 -14 -4 -11 -9 3 -5 -2 -15 -11 -22 -15 -12 -16 -12 -8 1 5 8
11 24 12 35 3 19 2 19 -16 -2 -10 -12 -21 -20 -24 -17 -6 7 29 44 42 44 5 0
12 -6 15 -12 5 -10 7 -10 12 0 3 6 12 12 19 12 7 0 20 12 30 26 9 15 12 23 6
20 -17 -11 -79 4 -84 20 -3 9 -4 8 -3 -3 0 -10 14 -20 34 -25 43 -11 43 -32 0
-23 -18 4 -37 13 -41 19 -6 7 -7 4 -3 -6 3 -11 -2 -21 -14 -28 -28 -15 -32
-12 -19 12 9 18 8 24 -6 34 -9 7 -23 10 -30 8 -7 -3 -20 3 -29 12 -14 14 -15
19 -4 25 7 5 8 9 2 9 -13 0 -54 -46 -47 -53 3 -3 12 -3 21 0 10 4 14 3 10 -2
-4 -4 -20 -8 -35 -9 -16 -1 -28 -6 -28 -13 0 -6 -3 -14 -6 -18 -4 -3 -7 10 -7
29 0 35 12 48 21 24 4 -8 6 -7 6 4 1 9 6 18 12 20 7 2 5 9 -5 17 -14 12 -16
11 -16 -5 -1 -18 -1 -18 -11 -1 -6 10 -8 25 -5 32 3 8 1 17 -4 20 -6 4 -10
-130 -10 -362 l0 -369 108 -11 c555 -59 1178 -460 1401 -901 13 -24 24 -42 25
-40 2 1 -1 136 -5 298 -8 306 -16 375 -68 564 -47 170 -196 470 -229 460 -14
-5 -15 -4 -2 5 12 8 13 12 2 23 -11 11 -16 10 -26 -5 -13 -17 -14 -17 -19 2
-2 10 0 25 5 32 8 11 9 10 4 -3 -3 -10 -1 -18 4 -18 6 0 10 6 10 13 0 14 -47
87 -57 87 -3 0 0 -7 7 -15 17 -20 -2 -43 -33 -40 -12 1 -14 0 -4 -2 9 -2 17
-9 17 -14 0 -5 -10 -7 -23 -4 -25 7 -53 -17 -42 -35 3 -5 1 -10 -5 -10 -6 0
-9 -4 -5 -10 3 -5 12 -7 21 -3 8 3 21 -2 28 -12 9 -13 15 -15 20 -7 4 7 2 12
-3 12 -6 0 -11 5 -11 11 0 8 4 8 14 0 8 -7 24 -14 36 -16 26 -5 50 -23 50 -38
0 -6 -6 -3 -13 6 -14 21 -67 33 -67 16 0 -7 -7 -8 -17 -4 -35 14 -62 14 -56
-1 3 -8 0 -14 -7 -14 -6 0 -8 -4 -5 -10 4 -7 -3 -7 -20 0 -42 16 -68 13 -61
-7 4 -9 1 -20 -6 -25 -9 -5 -6 -8 10 -8 21 0 22 -1 8 -16 -9 -8 -16 -19 -16
-24 0 -14 27 -19 39 -7 8 8 11 5 11 -10 0 -12 6 -24 13 -27 6 -3 3 -4 -8 -3
-16 2 -19 -3 -17 -22 2 -15 0 -21 -7 -16 -6 3 -9 11 -6 16 11 16 -7 10 -20 -8
-9 -13 -14 -13 -20 -3 -5 9 -4 11 3 6 13 -8 15 4 6 28 -5 12 -10 14 -19 6 -9
-7 -16 -6 -25 5 -10 13 -9 15 8 15 21 0 47 32 35 43 -3 4 -18 -2 -33 -13 -25
-18 -28 -18 -51 -2 -13 9 -31 25 -41 37 -9 11 -49 54 -89 95 -39 41 -96 107
-125 146 -52 70 -144 219 -144 233 0 4 -7 16 -16 27 -14 17 -15 12 -9 -67z
m-306 -114 c-6 -6 -12 -6 -17 2 -12 19 -55 4 -47 -16 5 -13 4 -14 -7 -3 -11
11 -9 16 7 28 11 8 28 13 38 10 9 -2 17 1 17 7 0 7 4 5 10 -3 6 -9 6 -18 -1
-25z m255 -60 c-4 -8 -10 -12 -15 -9 -14 8 -10 24 6 24 9 0 12 -6 9 -15z m36
-45 c0 -5 -4 -10 -10 -10 -5 0 -10 5 -10 10 0 6 5 10 10 10 6 0 10 -4 10 -10z
m738 -64 c-10 -7 -18 -18 -18 -25 0 -6 -8 -11 -17 -12 -10 0 -26 -2 -35 -4
-10 -2 -21 1 -24 7 -10 16 5 21 23 7 15 -12 16 -12 11 2 -5 12 -2 16 11 12 11
-3 21 5 30 23 9 21 15 24 24 15 9 -10 8 -15 -5 -25z m-78 -90 c0 -2 -7 -9 -15
-16 -13 -11 -14 -10 -9 4 5 14 24 23 24 12z m15 -26 c-5 -15 -1 -22 16 -28 19
-7 20 -10 6 -15 -10 -4 -17 -1 -17 6 0 7 -9 1 -20 -13 -11 -14 -20 -20 -20
-13 0 6 5 15 10 18 6 3 10 11 10 16 0 6 -7 3 -16 -5 -20 -21 -25 -20 -18 2 5
15 4 15 -10 -2 -8 -10 -27 -25 -42 -32 -23 -13 -25 -12 -14 1 10 12 10 18 0
30 -10 12 -10 19 -2 27 8 8 14 4 21 -15 10 -25 24 -38 19 -17 -2 7 66 58 80
60 2 0 0 -9 -3 -20z m165 -21 c6 -10 7 -19 3 -19 -4 0 -13 11 -20 25 -13 29 2
24 17 -6z m-80 10 c12 -8 10 -9 -9 -4 -17 5 -22 4 -16 -5 5 -9 4 -11 -4 -6 -6
4 -9 12 -6 17 8 12 16 11 35 -2z m-35 -49 c3 -6 -1 -7 -9 -4 -18 7 -21 14 -7
14 6 0 13 -4 16 -10z m-75 -80 c0 -5 -5 -10 -11 -10 -5 0 -7 -6 -3 -12 4 -7 3
-9 -1 -5 -15 13 -14 37 1 37 8 0 14 -4 14 -10z m-76 -56 c8 -21 -12 -17 -24 6
-8 16 -8 18 4 14 8 -3 17 -12 20 -20z"/>
<path d="M6629 5887 c-14 -11 -14 -14 -2 -26 8 -7 17 -10 21 -6 4 4 1 10 -6
12 -10 4 -10 8 -1 19 14 17 9 18 -12 1z"/>
<path d="M2686 5854 c-66 -16 -187 -71 -229 -105 l-28 -21 2 -149 c1 -82 6
-149 9 -149 4 0 20 18 35 39 49 71 160 134 265 149 l45 7 3 123 c3 140 10 133
-102 106z"/>
<path d="M7360 5741 l0 -119 60 -10 c103 -19 213 -86 271 -165 l29 -40 0 166
0 166 -72 39 c-92 51 -185 82 -243 82 l-45 0 0 -119z"/>
<path d="M6575 5840 c-3 -5 -2 -10 4 -10 5 0 13 5 16 10 3 6 2 10 -4 10 -5 0
-13 -4 -16 -10z"/>
<path d="M3517 5833 c-10 -9 -9 -23 1 -23 5 0 9 7 9 15 0 17 -1 18 -10 8z"/>
<path d="M6614 5829 c-4 -8 1 -9 16 -4 18 6 22 4 17 -8 -4 -11 -2 -14 9 -10 7
3 14 10 14 17 0 15 -47 19 -56 5z"/>
<path d="M3585 5760 c3 -5 8 -10 11 -10 2 0 4 5 4 10 0 6 -5 10 -11 10 -5 0
-7 -4 -4 -10z"/>
<path d="M6526 5741 c-4 -6 -13 -8 -21 -4 -8 3 -15 1 -15 -5 0 -17 28 -21 41
-6 6 8 9 17 6 20 -3 3 -8 1 -11 -5z"/>
<path d="M6300 5705 c0 -7 8 -18 17 -24 14 -7 9 -9 -20 -6 -34 3 -36 2 -27
-16 6 -10 16 -19 22 -19 6 0 5 6 -3 17 -12 14 -12 16 1 11 8 -2 17 -15 20 -29
6 -23 7 -23 17 -4 10 20 10 42 -1 71 -7 18 -26 18 -26 -1z"/>
<path d="M3850 5700 c0 -5 5 -10 11 -10 5 0 7 5 4 10 -3 6 -8 10 -11 10 -2 0
-4 -4 -4 -10z"/>
<path d="M6238 5703 c7 -3 16 -2 19 1 4 3 -2 6 -13 5 -11 0 -14 -3 -6 -6z"/>
<path d="M6235 5680 c-3 -5 -1 -10 4 -10 6 0 11 5 11 10 0 6 -2 10 -4 10 -3 0
-8 -4 -11 -10z"/>
<path d="M5510 5600 c-6 -11 -8 -20 -6 -20 3 0 10 9 16 20 6 11 8 20 6 20 -3
0 -10 -9 -16 -20z"/>
<path d="M4594 5599 c-3 -6 -1 -16 5 -22 8 -8 11 -5 11 11 0 24 -5 28 -16 11z"/>
<path d="M4526 5554 c-18 -17 -20 -24 -8 -24 4 0 13 9 20 20 15 24 9 26 -12 4z"/>
<path d="M5500 5546 c0 -2 7 -6 15 -10 8 -3 15 -1 15 4 0 6 -7 10 -15 10 -8 0
-15 -2 -15 -4z"/>
<path d="M4471 5508 c8 -15 13 -17 25 -7 18 15 18 16 -11 21 -21 4 -23 3 -14
-14z"/>
<path d="M4411 5501 c-10 -6 -10 -10 -1 -16 13 -8 24 -1 19 14 -3 6 -10 7 -18
2z"/>
<path d="M5700 5486 c0 -9 5 -16 10 -16 6 0 10 4 10 9 0 6 -4 13 -10 16 -5 3
-10 -1 -10 -9z"/>
<path d="M4310 5479 c0 -5 5 -7 10 -4 6 3 10 8 10 11 0 2 -4 4 -10 4 -5 0 -10
-5 -10 -11z"/>
<path d="M5535 5480 c-3 -5 -1 -10 4 -10 6 0 11 5 11 10 0 6 -2 10 -4 10 -3 0
-8 -4 -11 -10z"/>
<path d="M4460 5469 c0 -5 5 -7 10 -4 6 3 10 8 10 11 0 2 -4 4 -10 4 -5 0 -10
-5 -10 -11z"/>
<path d="M5741 5460 c-13 -11 -19 -20 -13 -20 10 0 42 27 42 36 0 7 -4 5 -29
-16z"/>
<path d="M4422 5458 c2 -6 10 -14 16 -16 7 -2 10 2 6 12 -7 18 -28 22 -22 4z"/>
<path d="M2680 5436 c-97 -27 -161 -76 -215 -166 -19 -32 -35 -70 -35 -85 l0
-28 -19 21 c-21 26 -77 31 -68 7 4 -8 2 -17 -3 -20 -6 -4 -10 0 -10 7 -1 9 -5
7 -14 -5 -13 -17 -14 -16 -19 3 -3 13 0 20 8 20 24 0 25 17 2 36 l-22 19 20
-24 c17 -21 18 -23 3 -18 -10 3 -20 2 -23 -4 -4 -5 -10 -7 -15 -4 -4 3 -13 -2
-20 -10 -16 -20 -22 -19 -50 7 -16 15 -25 18 -28 10 -2 -7 -8 -9 -13 -6 -6 3
-2 12 8 20 17 14 17 15 -4 9 -14 -4 -23 -2 -23 4 0 17 -17 13 -24 -5 -3 -8 -2
-12 4 -9 5 3 14 -3 19 -14 8 -15 7 -20 -5 -25 -11 -4 -15 -2 -12 6 3 7 -3 21
-13 30 -15 14 -18 14 -23 2 -3 -8 -11 -14 -18 -14 -8 0 -9 3 -3 8 6 4 11 23
12 42 1 30 -1 27 -19 -25 -31 -91 -31 -318 0 -433 53 -194 164 -360 322 -477
89 -67 310 -151 377 -143 l28 3 3 638 2 637 -32 -1 c-18 0 -53 -6 -78 -13z
m-300 -266 c0 -5 -4 -10 -10 -10 -5 0 -10 5 -10 10 0 6 5 10 10 10 6 0 10 -4
10 -10z m-110 -10 c0 -5 -8 -10 -17 -10 -15 0 -16 2 -3 10 19 12 20 12 20 0z
m110 -19 c0 -5 -7 -12 -16 -15 -14 -5 -15 -4 -4 9 14 17 20 19 20 6z m47 -10
c0 -11 -5 -17 -9 -15 -11 7 -10 34 1 34 6 0 9 -9 8 -19z"/>
<path d="M4485 5440 c3 -5 11 -10 16 -10 6 0 7 5 4 10 -3 6 -11 10 -16 10 -6
0 -7 -4 -4 -10z"/>
<path d="M7362 4813 l3 -638 56 2 c62 2 154 30 244 74 269 132 449 430 449
744 0 119 -20 238 -35 214 -7 -11 -9 -11 -9 4 0 9 -4 17 -10 17 -11 0 4 -45
23 -70 6 -8 0 -5 -15 8 l-26 24 -18 -31 c-17 -29 -31 -36 -63 -32 -7 2 -10 -2
-6 -8 8 -14 -8 -14 -22 0 -6 6 -9 18 -6 27 4 10 2 13 -5 8 -6 -3 -13 -2 -17 4
-3 5 -12 10 -18 10 -7 0 -4 -5 6 -11 21 -12 22 -23 1 -44 -20 -20 -32 -11 -14
10 7 9 10 19 6 22 -4 4 -11 1 -15 -6 -5 -7 -13 -11 -19 -7 -19 12 -25 -17 -7
-31 11 -7 14 -13 8 -13 -7 0 -18 7 -27 15 -10 11 -17 12 -22 4 -4 -8 -9 -7
-15 2 -7 12 -11 11 -26 -3 -16 -17 -16 -18 2 -19 11 -1 24 -1 28 0 5 1 6 -3 2
-8 -3 -7 -15 -7 -29 -1 -19 7 -25 5 -33 -13 -9 -19 -10 -18 -10 10 0 18 5 29
10 26 5 -3 13 1 18 8 13 21 11 29 -7 29 -8 0 -12 -4 -9 -10 3 -5 1 -10 -4 -10
-6 0 -11 15 -11 34 0 76 -62 176 -141 227 -51 33 -154 69 -195 69 l-24 0 2
-637z m668 313 l-21 -21 18 32 c10 18 20 28 22 22 2 -6 -6 -21 -19 -33z m-80
-36 c0 -5 -5 -10 -11 -10 -5 0 -7 5 -4 10 3 6 8 10 11 10 2 0 4 -4 4 -10z"/>
<path d="M4416 5424 c3 -12 1 -25 -5 -28 -7 -4 -11 1 -11 14 0 12 -5 18 -10
15 -7 -4 -7 -12 0 -25 11 -21 -12 -46 -32 -34 -10 6 -10 4 0 -9 11 -13 17 -14
32 -5 10 7 17 15 14 19 -2 4 5 14 16 22 17 12 18 16 5 33 -14 18 -14 18 -9 -2z"/>
<path d="M4311 5416 c-10 -12 -8 -13 8 -9 12 3 18 9 15 14 -7 12 -10 11 -23
-5z"/>
<path d="M5745 5410 c3 -5 8 -10 11 -10 2 0 4 5 4 10 0 6 -5 10 -11 10 -5 0
-7 -4 -4 -10z"/>
<path d="M5800 5404 c0 -8 5 -12 10 -9 6 3 10 10 10 16 0 5 -4 9 -10 9 -5 0
-10 -7 -10 -16z"/>
<path d="M5691 5378 c1 -18 2 -19 6 -5 2 9 9 14 15 11 7 -4 8 -2 4 4 -12 20
-26 13 -25 -10z"/>
<path d="M5734 5392 c4 -6 -2 -15 -11 -21 -16 -9 -16 -12 -3 -21 19 -13 30
-13 30 0 0 6 -5 10 -12 10 -9 0 -9 3 0 12 10 10 15 10 22 -2 6 -9 10 -10 10
-3 0 7 -10 17 -21 24 -13 7 -19 7 -15 1z"/>
<path d="M4446 5313 c-11 -11 -6 -23 8 -23 8 0 17 4 20 9 7 10 -19 23 -28 14z"/>
<path d="M2356 5223 c-6 -14 -5 -15 5 -6 7 7 10 15 7 18 -3 3 -9 -2 -12 -12z"/>
<path d="M8020 5225 c-10 -12 -16 -13 -26 -4 -8 6 -14 7 -14 3 0 -12 40 -37
48 -30 3 3 -1 6 -8 6 -9 0 -8 6 5 20 10 11 16 20 13 20 -3 0 -11 -7 -18 -15z"/>
<path d="M2231 5204 c0 -11 3 -14 6 -6 3 7 2 16 -1 19 -3 4 -6 -2 -5 -13z"/>
<path d="M7765 5180 c-3 -5 -3 -15 1 -21 4 -8 9 -7 15 2 6 10 9 8 9 -8 0 -13
4 -23 9 -23 12 0 2 37 -14 50 -9 8 -15 8 -20 0z"/>
<path d="M7925 5182 c-3 -3 3 -11 13 -18 14 -11 15 -15 3 -23 -10 -7 -8 -9 11
-8 26 2 36 27 10 27 -8 0 -12 6 -9 13 5 13 -17 19 -28 9z"/>
<path d="M7986 5169 c3 -5 12 -9 21 -9 19 0 9 13 -12 16 -8 1 -13 -2 -9 -7z"/>
<path d="M7840 5160 c0 -5 5 -10 10 -10 6 0 10 5 10 10 0 6 -4 10 -10 10 -5 0
-10 -4 -10 -10z"/>
<path d="M3991 4366 c-7 -41 -12 -121 -12 -178 -1 -62 -4 -95 -9 -83 -7 19 -8
19 -15 2 -6 -15 -10 -15 -23 -5 -13 11 -14 11 -7 -2 8 -13 6 -13 -7 -2 -9 8
-14 20 -11 28 3 9 -1 14 -12 14 -9 0 -14 4 -11 9 3 5 14 8 24 6 9 -1 11 0 5 2
-7 3 -13 9 -13 14 0 5 -8 1 -18 -8 -11 -10 -17 -21 -15 -24 3 -8 -28 -22 -34
-15 -3 2 0 14 7 25 14 27 2 27 -26 0 l-22 -21 -23 23 c-14 14 -18 24 -11 27 7
2 12 10 12 17 0 19 -27 26 -34 9 -3 -8 -2 -13 3 -10 4 3 8 -8 7 -23 -1 -22 -4
-27 -13 -19 -7 6 -11 14 -8 18 5 8 -31 23 -55 21 -10 0 -11 1 -2 5 8 4 4 12
-13 26 -22 17 -28 18 -42 6 -15 -11 -16 -11 -10 5 4 10 7 21 7 23 0 3 3 3 8 1
4 -3 14 2 22 11 13 14 12 15 -3 9 -13 -5 -17 -1 -18 16 -1 17 -2 18 -6 4 -2
-9 -9 -15 -14 -12 -5 4 -10 1 -10 -4 -3 -26 -4 -30 -11 -36 -4 -4 -4 -14 -1
-23 4 -14 3 -14 -5 -3 -6 8 -8 20 -5 28 3 7 0 13 -7 13 -8 0 -10 8 -7 21 4 17
2 20 -12 16 -14 -3 -17 0 -14 14 4 13 0 19 -12 19 -12 0 -15 -5 -11 -16 4 -10
1 -14 -6 -12 -7 3 -13 24 -15 47 -1 24 -4 46 -7 49 -3 3 -6 -56 -6 -130 0
-142 2 -152 57 -265 86 -178 309 -425 507 -562 157 -108 412 -227 566 -265 94
-23 244 -44 330 -48 l75 -3 -1 245 c-1 210 -4 259 -23 345 -12 54 -26 104 -33
110 -8 7 -9 5 -4 -10 6 -16 5 -18 -5 -7 -18 17 -46 15 -54 -5 -6 -16 -8 -16
-26 6 -17 21 -19 21 -19 4 0 -24 19 -43 42 -43 10 0 18 -7 18 -15 0 -21 -62
14 -75 43 -5 12 -13 22 -17 22 -4 0 -15 14 -23 31 -9 17 -19 28 -22 25 -3 -3
0 -12 7 -21 7 -8 9 -15 4 -15 -5 0 -1 -5 9 -11 9 -6 15 -14 12 -20 -4 -5 -1
-9 6 -9 6 0 0 -11 -15 -25 -28 -25 -56 -33 -56 -15 0 6 7 10 15 10 8 0 15 5
15 11 0 5 4 8 9 5 5 -4 7 3 4 14 -3 11 -9 17 -14 14 -5 -3 -7 -9 -4 -14 3 -4
-4 -10 -15 -13 -10 -3 -21 0 -23 6 -4 12 -27 0 -27 -14 0 -6 4 -8 9 -5 5 3 11
0 14 -8 4 -9 0 -13 -11 -11 -9 2 -20 4 -24 4 -3 1 -4 10 -1 21 5 18 0 20 -36
20 -35 0 -41 3 -47 25 -4 14 -9 24 -11 21 -8 -8 -83 66 -77 75 3 5 -1 9 -7 9
-25 0 -438 436 -461 486 -20 43 -35 27 -47 -50z m-461 -91 c0 -11 -29 -11 -33
-1 -4 10 1 12 14 9 10 -3 19 -7 19 -8z m9 -61 c-6 -8 -17 -14 -23 -14 -6 0 -3
5 7 11 9 6 14 15 11 21 -4 7 -2 8 5 4 9 -6 9 -11 0 -22z m351 -94 c0 -5 -4
-10 -10 -10 -5 0 -10 -7 -10 -17 0 -9 -3 -13 -7 -9 -11 11 -10 30 2 38 14 11
25 10 25 -2z m-77 -15 c-3 -9 -8 -14 -10 -11 -3 3 -2 9 2 15 9 16 15 13 8 -4z
m164 -51 c-3 -3 -12 -4 -19 -1 -8 3 -5 6 6 6 11 1 17 -2 13 -5z m960 -273 c10
-16 9 -20 -3 -25 -10 -4 -12 -2 -8 6 4 6 -1 17 -11 25 -14 9 -15 13 -4 13 8 0
20 -9 26 -19z m-279 -5 c-7 -8 -15 -12 -17 -11 -5 6 10 25 20 25 5 0 4 -6 -3
-14z m50 -49 c6 3 12 0 12 -7 0 -6 4 -8 10 -5 5 3 7 0 4 -9 -3 -8 -13 -17 -21
-20 -13 -5 -14 -4 -4 8 8 10 9 16 1 21 -5 3 -10 1 -10 -4 0 -6 -4 -11 -10 -11
-5 0 -10 7 -10 15 0 8 -4 15 -10 15 -5 0 -10 5 -10 12 0 7 6 6 18 -4 9 -9 23
-13 30 -11z m97 4 c-8 -14 -25 -14 -25 0 0 5 5 7 10 4 6 -3 10 -1 10 6 0 7 3
10 6 6 3 -3 3 -10 -1 -16z m51 -1 c0 -12 -4 -16 -9 -11 -5 5 -6 14 -3 20 10
15 12 14 12 -9z m-73 -37 c-7 -2 -21 -2 -30 0 -10 3 -4 5 12 5 17 0 24 -2 18
-5z m-3 -38 c0 -2 -9 -9 -19 -15 -14 -7 -22 -7 -27 2 -4 6 -3 8 4 4 6 -3 13
-2 17 4 6 10 25 14 25 5z"/>
<path d="M6075 4363 c-78 -100 -458 -483 -479 -483 -9 0 -16 -5 -16 -11 0 -5
6 -7 13 -3 6 4 4 -2 -6 -14 -11 -11 -25 -18 -33 -15 -13 5 -19 -8 -15 -31 1
-5 -11 -6 -27 -3 -16 3 -34 1 -41 -6 -8 -8 -11 -8 -11 2 0 7 -5 9 -11 5 -6 -3
-9 -15 -6 -25 4 -16 2 -17 -14 -8 -13 6 -25 6 -38 -1 -25 -13 -28 -13 -28 4 0
7 5 13 11 13 44 -1 56 4 56 23 0 11 -7 20 -15 20 -8 0 -15 7 -15 16 0 9 -5 12
-12 8 -6 -4 -17 1 -25 11 -7 11 -13 14 -13 8 0 -7 5 -15 10 -18 8 -5 7 -12 -2
-23 -12 -14 -10 -14 10 -3 18 10 22 9 22 -4 0 -8 -4 -16 -10 -16 -5 -1 -14 -2
-19 -3 -5 0 -13 -4 -17 -8 -13 -14 -23 -8 -18 10 5 16 5 16 -9 -1 -14 -17 -16
-16 -36 9 -15 19 -21 22 -21 10 0 -9 4 -16 8 -16 4 0 8 -9 8 -20 0 -17 -2 -18
-16 -5 -9 8 -19 13 -22 10 -3 -3 -8 3 -11 15 -3 11 -1 17 4 14 6 -3 7 5 3 20
-5 23 -4 25 12 19 18 -6 18 -6 2 10 -9 10 -15 27 -13 40 4 21 4 21 -10 3 -11
-14 -12 -22 -4 -27 8 -5 7 -9 -3 -15 -39 -23 -78 -315 -78 -587 0 -130 3 -159
15 -163 23 -9 247 23 363 51 234 57 454 165 677 334 176 133 360 354 451 544
31 65 34 78 30 137 -2 36 -5 88 -7 115 -1 28 -4 40 -6 28 -3 -15 -12 -23 -24
-23 -10 0 -19 -6 -19 -14 0 -22 -29 -41 -42 -28 -12 12 -41 4 -32 -9 3 -5 11
-6 17 -3 7 4 9 4 5 -1 -4 -4 -2 -17 3 -28 10 -18 9 -19 -15 -15 -20 4 -24 2
-16 -7 8 -10 5 -13 -13 -11 -13 0 -24 7 -24 14 0 11 18 17 40 13 4 0 7 6 7 14
0 16 -21 20 -34 8 -4 -5 -12 -8 -17 -8 -5 0 -10 -4 -11 -10 -3 -18 -23 -33
-37 -27 -11 4 -11 1 -2 -16 6 -11 11 -23 11 -26 0 -11 -45 -1 -59 12 -9 9 -17
10 -24 3 -5 -5 -17 -7 -26 -4 -9 4 -13 3 -9 -2 11 -12 -11 -35 -26 -29 -15 6
-31 -40 -20 -58 5 -7 2 -8 -6 -3 -10 6 -12 4 -7 -8 3 -9 2 -19 -3 -22 -6 -4
-10 -2 -10 3 0 5 -7 9 -16 9 -10 0 -14 -7 -11 -19 3 -10 1 -15 -5 -12 -5 4 -8
17 -5 30 2 13 0 24 -4 24 -9 0 -14 -24 -9 -45 1 -5 -2 -7 -6 -3 -4 4 -13 3
-20 -3 -17 -14 -33 -4 -31 21 1 14 4 16 14 8 7 -5 10 -15 6 -21 -3 -5 -1 -7 4
-4 6 4 13 16 16 28 4 15 2 19 -9 15 -19 -7 -22 14 -27 184 -5 137 -11 180 -26
180 -3 0 -33 -35 -66 -77z m580 -85 c6 -4 2 -8 -7 -8 -10 0 -18 7 -18 17 0 9
3 12 8 7 4 -5 12 -12 17 -16z m-174 -105 c-12 -20 -14 -14 -5 12 4 9 9 14 11
11 3 -2 0 -13 -6 -23z m29 -18 c-7 -8 -17 -15 -22 -15 -11 0 14 29 26 30 5 0
3 -7 -4 -15z m-100 -16 c0 -5 -5 -9 -11 -9 -8 0 -7 -6 2 -17 12 -15 12 -16 -3
-10 -10 4 -18 2 -18 -5 0 -7 -4 -7 -13 0 -8 7 -18 7 -27 2 -16 -10 -30 -4 -30
12 0 5 7 7 16 4 8 -3 12 -2 9 3 -3 5 -1 12 5 16 5 3 10 1 10 -5 0 -15 25 -7
26 8 2 21 4 22 19 16 8 -4 15 -10 15 -15z m-990 -329 c0 -5 -4 -10 -10 -10 -5
0 -10 5 -10 10 0 6 5 10 10 10 6 0 10 -4 10 -10z m95 -32 c6 -4 -2 -7 -17 -6
-21 2 -24 5 -16 15 6 8 14 10 17 6 3 -4 11 -11 16 -15z m-280 -8 c3 -5 -1 -10
-10 -10 -11 0 -15 -5 -12 -14 4 -10 1 -13 -8 -10 -11 5 -12 10 -2 25 13 21 23
24 32 9z m85 -14 c0 -3 -4 -8 -10 -11 -5 -3 -10 -1 -10 4 0 6 5 11 10 11 6 0
10 -2 10 -4z m121 -13 c13 -17 13 -17 -6 -3 -11 8 -22 16 -24 17 -2 2 0 3 6 3
6 0 17 -8 24 -17z m-198 -18 c-3 -9 -8 -14 -10 -11 -3 3 -2 9 2 15 9 16 15 13
8 -4z m117 5 c0 -5 -5 -10 -11 -10 -5 0 -7 5 -4 10 3 6 8 10 11 10 2 0 4 -4 4
-10z m70 -14 c0 -2 -9 -6 -20 -9 -11 -3 -18 -1 -14 4 5 9 34 13 34 5z"/>
<path d="M3503 4381 c1 -14 9 -26 17 -28 10 -3 11 -2 4 4 -7 4 -14 17 -17 28
-5 16 -5 15 -4 -4z"/>
<path d="M6640 4365 c-11 -13 -11 -18 0 -28 10 -9 11 -9 6 1 -4 7 -2 19 4 27
7 8 10 15 7 15 -2 0 -10 -7 -17 -15z"/>
<path d="M3554 4338 c-4 -7 -3 -8 4 -4 8 5 12 -1 12 -15 0 -26 12 -18 17 11 3
22 -21 28 -33 8z"/>
<path d="M3635 4330 c-3 -5 -1 -10 4 -10 6 0 11 5 11 10 0 6 -2 10 -4 10 -3 0
-8 -4 -11 -10z"/>
<path d="M6581 4314 c0 -11 3 -14 6 -6 3 7 2 16 -1 19 -3 4 -6 -2 -5 -13z"/>
<path d="M6477 4274 c6 -16 19 -18 27 -5 3 5 -3 11 -13 14 -14 3 -18 1 -14 -9z"/>
<path d="M3662 4259 c-9 -13 -5 -22 18 -42 26 -24 40 -25 40 -5 0 5 -5 6 -11
2 -8 -4 -9 1 -4 17 4 16 3 19 -3 11 -7 -10 -11 -10 -22 3 -10 12 -10 15 4 15
9 0 16 4 16 8 0 15 -27 9 -38 -9z"/>
<path d="M3751 4254 c0 -11 3 -14 6 -6 3 7 2 16 -1 19 -3 4 -6 -2 -5 -13z"/>
<path d="M3775 4230 c-16 -7 -17 -9 -3 -9 9 -1 20 4 23 9 7 11 7 11 -20 0z"/>
<path d="M3780 4166 c0 -8 4 -17 9 -20 10 -7 23 19 14 28 -11 11 -23 6 -23 -8z"/>
<path d="M3932 4134 c-14 -16 -5 -18 17 -5 7 5 9 11 5 14 -5 3 -15 -1 -22 -9z"/>
<path d="M6230 4116 c0 -8 4 -17 9 -20 5 -4 7 3 4 14 -6 23 -13 26 -13 6z"/>
<path d="M6260 4089 c0 -11 5 -17 10 -14 6 3 10 13 10 21 0 8 -4 14 -10 14 -5
0 -10 -9 -10 -21z"/>
<path d="M4846 3891 c-28 -19 -28 -19 -7 -30 14 -8 21 -8 21 -1 0 5 -5 10 -11
10 -5 0 -7 5 -4 11 4 6 13 8 20 5 7 -2 16 2 19 10 7 19 -3 18 -38 -5z"/>
<path d="M5370 3890 c0 -5 5 -10 11 -10 5 0 7 5 4 10 -3 6 -8 10 -11 10 -2 0
-4 -4 -4 -10z"/>
<path d="M4720 3861 c4 -14 5 -32 3 -38 -3 -7 0 -13 7 -13 6 0 8 5 5 10 -3 6
1 10 9 10 9 0 16 5 16 10 0 6 -3 9 -7 9 -20 -3 -24 2 -14 15 9 11 7 15 -8 19
-16 4 -18 1 -11 -22z"/>
<path d="M4665 3869 c-4 -6 -5 -12 -2 -15 2 -3 7 2 10 11 7 17 1 20 -8 4z"/>
<path d="M4916 3861 c-12 -13 -14 -21 -6 -26 6 -4 14 -4 17 -1 4 3 0 6 -8 6
-10 1 -8 5 5 15 11 8 17 17 14 20 -2 3 -13 -3 -22 -14z"/>
<path d="M5525 3870 c-3 -5 -1 -10 4 -10 6 0 11 5 11 10 0 6 -2 10 -4 10 -3 0
-8 -4 -11 -10z"/>
<path d="M5427 3863 c-10 -9 -9 -23 1 -23 5 0 9 7 9 15 0 17 -1 18 -10 8z"/>
<path d="M5555 3861 c-3 -5 -2 -12 3 -15 5 -3 9 1 9 9 0 17 -3 19 -12 6z"/>
<path d="M4805 3850 c-3 -5 1 -10 10 -10 9 0 13 5 10 10 -3 6 -8 10 -10 10 -2
0 -7 -4 -10 -10z"/>
<path d="M4685 3840 c-7 -11 2 -30 13 -30 4 0 8 9 8 20 0 21 -11 26 -21 10z"/>
<path d="M4870 3839 c0 -5 5 -7 10 -4 6 3 10 8 10 11 0 2 -4 4 -10 4 -5 0 -10
-5 -10 -11z"/>
<path d="M5290 3835 c0 -8 5 -15 10 -15 6 0 10 7 10 15 0 8 -4 15 -10 15 -5 0
-10 -7 -10 -15z"/>
<path d="M5507 3834 c6 -15 23 -19 23 -5 0 5 -7 11 -14 14 -10 4 -13 1 -9 -9z"/>
<path d="M4646 3825 c4 -8 11 -15 16 -15 6 0 5 6 -2 15 -7 8 -14 15 -16 15 -2
0 -1 -7 2 -15z"/>
<path d="M5455 3830 c-3 -5 -2 -10 4 -10 5 0 13 5 16 10 3 6 2 10 -4 10 -5 0
-13 -4 -16 -10z"/>
<path d="M2585 2550 c-120 -18 -189 -118 -147 -214 23 -51 67 -83 152 -111 96
-31 119 -55 84 -89 -22 -23 -96 -20 -145 5 -35 17 -45 19 -70 8 -63 -26 -41
-90 46 -130 48 -22 161 -25 208 -5 39 16 94 76 103 112 9 36 -13 102 -44 134
-15 14 -61 39 -102 55 -41 16 -86 38 -99 51 l-24 22 26 26 c33 33 60 33 126 0
43 -22 57 -25 76 -16 25 12 41 51 32 76 -19 49 -134 89 -222 76z"/>
<path d="M5522 2549 c-58 -14 -128 -80 -137 -131 -10 -53 0 -84 43 -129 29
-31 55 -45 121 -67 97 -31 119 -53 82 -83 -30 -25 -86 -25 -145 2 -40 17 -50
18 -74 7 -36 -17 -40 -53 -10 -85 81 -88 284 -83 349 9 46 64 31 153 -32 200
-19 14 -66 37 -105 52 -92 34 -108 47 -100 74 5 14 21 25 47 32 35 10 47 8 96
-15 52 -23 58 -24 80 -10 30 20 31 67 2 96 -44 44 -141 65 -217 48z"/>
<path d="M6120 2547 c-18 -9 -50 -68 -128 -231 -57 -121 -106 -235 -109 -253
-7 -42 10 -63 52 -63 36 0 59 21 76 68 l11 32 126 0 127 0 24 -45 c26 -50 57
-65 96 -47 51 23 45 48 -69 285 -99 205 -138 267 -169 267 -7 0 -23 -6 -37
-13z m75 -257 l35 -70 -75 0 c-73 0 -74 0 -66 23 29 73 52 117 61 117 5 0 26
-31 45 -70z"/>
<path d="M6712 2541 c-70 -24 -118 -65 -156 -131 -28 -49 -31 -64 -31 -135 0
-95 26 -157 89 -211 125 -107 347 -81 427 50 27 45 26 139 -2 167 -20 20 -28
21 -123 14 -55 -4 -107 -12 -113 -17 -16 -13 -17 -60 -1 -76 7 -7 38 -12 71
-12 67 0 71 -11 17 -47 -69 -47 -164 -22 -217 56 -62 92 14 231 125 231 18 0
56 -10 83 -21 l50 -22 27 20 c38 28 39 57 4 92 -30 31 -114 61 -166 61 -17 -1
-55 -9 -84 -19z"/>
<path d="M3092 2535 c-63 -27 -110 -74 -143 -140 -28 -57 -31 -72 -27 -132 9
-158 122 -266 279 -267 121 0 214 68 262 192 48 122 -17 272 -145 336 -41 21
-66 26 -122 26 -39 -1 -86 -7 -104 -15z m190 -140 c50 -34 76 -100 59 -155
-35 -117 -163 -157 -245 -76 -71 72 -63 188 17 236 47 29 122 27 169 -5z"/>
<path d="M3606 2534 c-25 -25 -29 -56 -24 -207 4 -115 8 -150 25 -187 41 -90
122 -141 221 -141 106 0 170 36 216 120 26 49 26 51 24 227 l-3 178 -27 16
c-25 13 -31 13 -55 0 l-28 -16 -5 -164 c-5 -134 -9 -170 -23 -191 -45 -67
-145 -63 -193 8 -16 24 -19 51 -22 186 -4 147 -5 158 -25 172 -28 19 -61 19
-81 -1z"/>
<path d="M4209 2533 c-11 -12 -15 -69 -17 -248 -3 -223 -2 -232 18 -258 25
-32 69 -36 93 -9 14 15 17 42 17 148 l1 129 36 -40 c242 -267 257 -279 297
-239 14 14 16 48 14 262 l-3 246 -26 15 c-35 20 -74 8 -88 -27 -8 -19 -11 -71
-9 -146 2 -64 2 -116 0 -116 -5 0 -18 14 -146 163 -99 115 -123 137 -146 137
-15 0 -34 -7 -41 -17z"/>
<path d="M4817 2535 c-22 -10 -22 -14 -25 -257 l-2 -247 25 -17 c22 -14 43
-16 138 -11 62 4 128 11 148 17 47 13 113 71 147 128 23 40 27 58 27 122 0 62
-5 84 -27 126 -30 58 -74 99 -133 125 -49 21 -264 32 -298 14z m240 -131 c49
-24 83 -78 83 -133 0 -90 -67 -145 -170 -139 l-55 3 -3 134 c-2 101 1 136 10
143 22 13 98 9 135 -8z"/>
<path d="M7183 2523 c-23 -22 -23 -27 -23 -248 l0 -226 25 -24 c24 -25 27 -25
188 -25 179 0 200 6 200 54 0 52 -22 61 -156 66 l-122 5 0 45 0 45 95 5 c52 3
101 9 108 13 6 5 12 21 12 37 0 46 -30 60 -132 60 l-88 0 0 50 0 50 128 0 c86
0 132 4 140 12 19 19 15 76 -5 87 -10 5 -92 11 -183 13 -159 3 -166 3 -187
-19z"/>
</g>
</svg>
